<svg width="480" height="493" viewBox="0 0 480 493" fill="none" xmlns="http://www.w3.org/2000/svg">
<path d="M471 246.5C471 252.755 466.956 260.345 455.768 268.666C444.748 276.863 428.228 284.625 407.005 291.301C364.665 304.621 305.618 313 240 313C174.382 313 115.335 304.621 72.9951 291.301C51.7722 284.625 35.2519 276.863 24.2315 268.666C13.0436 260.345 9 252.755 9 246.5C9 240.245 13.0436 232.655 24.2315 224.334C35.2519 216.137 51.7722 208.375 72.9951 201.699C115.335 188.379 174.382 180 240 180C305.618 180 364.665 188.379 407.005 201.699C428.228 208.375 444.748 216.137 455.768 224.334C466.956 232.655 471 240.245 471 246.5Z" stroke="#3CB7EB" stroke-width="18"/>
<path d="M355.5 46.4482C360.917 49.5757 365.469 56.8727 367.081 70.7223C368.669 84.3644 367.131 102.552 362.302 124.27C352.667 167.597 330.4 222.923 297.591 279.75C264.782 336.577 228.002 383.523 195.297 413.531C178.903 428.573 163.921 438.999 151.312 444.444C138.512 449.973 129.917 449.679 124.5 446.552C119.083 443.424 114.531 436.127 112.919 422.278C111.331 408.636 112.869 390.448 117.698 368.73C127.333 325.403 149.6 270.077 182.409 213.25C215.218 156.423 251.998 109.477 284.703 79.4689C301.097 64.4275 316.079 54.0015 328.688 48.5558C341.488 43.0274 350.083 43.3206 355.5 46.4482Z" stroke="#3CB7EB" stroke-width="18"/>
<path d="M124.592 47.0403C130.009 43.9128 138.604 43.6195 151.405 49.148C164.013 54.5937 178.995 65.0197 195.389 80.0611C228.094 110.069 264.874 157.015 297.683 213.842C330.492 270.669 352.759 325.995 362.394 369.322C367.223 391.04 368.761 409.228 367.173 422.87C365.561 436.72 361.009 444.017 355.592 447.144C350.175 450.272 341.58 450.565 328.78 445.036C316.171 439.591 301.189 429.165 284.796 414.123C252.091 384.116 215.311 337.169 182.501 280.342C149.692 223.515 127.426 168.19 117.791 124.862C112.961 103.145 111.423 84.9566 113.011 71.3144C114.624 57.4649 119.175 50.1679 124.592 47.0403Z" stroke="#3CB7EB" stroke-width="18"/>
<circle cx="240" cy="246" r="38" fill="#3CB7EB"/>
</svg>
